<?xml version="1.0" encoding="UTF-8" standalone="no"?>
<!DOCTYPE svg PUBLIC "-//W3C//DTD SVG 1.1//EN"
 "http://www.w3.org/Graphics/SVG/1.1/DTD/svg11.dtd">
<!-- Generated by graphviz version 2.43.0 (0)
 -->
<!-- Title: %3 Pages: 1 -->
<svg width="401pt" height="192pt"
 viewBox="0.00 0.00 401.09 191.57" xmlns="http://www.w3.org/2000/svg" xmlns:xlink="http://www.w3.org/1999/xlink">
<g id="graph0" class="graph" transform="scale(1 1) rotate(0) translate(4 187.57)">
<title>%3</title>
<polygon fill="white" stroke="transparent" points="-4,4 -4,-187.57 397.09,-187.57 397.09,4 -4,4"/>
<!-- Tienda 1 -->
<g id="node1" class="node">
<title>Tienda 1</title>
<ellipse fill="#add8e6" stroke="black" cx="116.09" cy="-152.37" rx="31.4" ry="31.4"/>
<text text-anchor="middle" x="116.09" y="-149.87" font-family="Times,serif" font-size="10.00">Tienda 1</text>
</g>
<!-- Almacen A -->
<g id="node4" class="node">
<title>Almacen A</title>
<ellipse fill="#add8e6" stroke="black" cx="37.09" cy="-37.09" rx="37.17" ry="37.17"/>
<text text-anchor="middle" x="37.09" y="-34.59" font-family="Times,serif" font-size="10.00">Almacen A</text>
</g>
<!-- Tienda 1&#45;&gt;Almacen A -->
<g id="edge1" class="edge">
<title>Tienda 1&#45;&gt;Almacen A</title>
<path fill="none" stroke="black" d="M85.62,-144.48C64.03,-137.83 36.6,-125.39 23.09,-103.17 18.95,-96.37 18.05,-88.51 18.95,-80.66"/>
<polygon fill="black" stroke="black" points="22.39,-81.3 20.94,-70.8 15.53,-79.91 22.39,-81.3"/>
<text text-anchor="middle" x="28.59" y="-95.17" font-family="Times,serif" font-size="10.00">4$</text>
</g>
<!-- Almacen B -->
<g id="node5" class="node">
<title>Almacen B</title>
<ellipse fill="#add8e6" stroke="black" cx="333.09" cy="-37.09" rx="36.49" ry="36.49"/>
<text text-anchor="middle" x="333.09" y="-34.59" font-family="Times,serif" font-size="10.00">Almacen B</text>
</g>
<!-- Tienda 1&#45;&gt;Almacen B -->
<g id="edge2" class="edge">
<title>Tienda 1&#45;&gt;Almacen B</title>
<path fill="none" stroke="black" d="M140.96,-132.84C147.84,-128.44 155.51,-124.16 163.09,-121.17 204.69,-104.77 222.03,-123.06 262.09,-103.17 277.07,-95.73 291.19,-84.16 302.83,-72.82"/>
<polygon fill="black" stroke="black" points="305.57,-75.03 310.11,-65.46 300.59,-70.11 305.57,-75.03"/>
<text text-anchor="middle" x="284.59" y="-95.17" font-family="Times,serif" font-size="10.00">7$</text>
</g>
<!-- Almacen C -->
<g id="node6" class="node">
<title>Almacen C</title>
<ellipse fill="#add8e6" stroke="black" cx="226.09" cy="-37.09" rx="36.49" ry="36.49"/>
<text text-anchor="middle" x="226.09" y="-34.59" font-family="Times,serif" font-size="10.00">Almacen C</text>
</g>
<!-- Tienda 1&#45;&gt;Almacen C -->
<g id="edge3" class="edge">
<title>Tienda 1&#45;&gt;Almacen C</title>
<path fill="none" stroke="black" d="M139.56,-131.61C149.27,-123.13 160.49,-112.94 170.09,-103.17 179.15,-93.94 188.51,-83.49 196.91,-73.7"/>
<polygon fill="black" stroke="black" points="199.62,-75.92 203.43,-66.03 194.29,-71.39 199.62,-75.92"/>
<text text-anchor="middle" x="184.59" y="-95.17" font-family="Times,serif" font-size="10.00">2$</text>
</g>
<!-- Almacen D -->
<g id="node7" class="node">
<title>Almacen D</title>
<ellipse fill="#add8e6" stroke="black" cx="129.09" cy="-37.09" rx="37.17" ry="37.17"/>
<text text-anchor="middle" x="129.09" y="-34.59" font-family="Times,serif" font-size="10.00">Almacen D</text>
</g>
<!-- Tienda 1&#45;&gt;Almacen D -->
<g id="edge4" class="edge">
<title>Tienda 1&#45;&gt;Almacen D</title>
<path fill="none" stroke="black" d="M97.52,-127.27C91.56,-116.68 87.35,-103.98 91.09,-92.17 93.04,-86 95.98,-79.92 99.37,-74.19"/>
<polygon fill="black" stroke="black" points="102.49,-75.81 105.01,-65.51 96.62,-71.99 102.49,-75.81"/>
<text text-anchor="middle" x="96.59" y="-95.17" font-family="Times,serif" font-size="10.00">5$</text>
</g>
<!-- Tienda 2 -->
<g id="node2" class="node">
<title>Tienda 2</title>
<ellipse fill="#add8e6" stroke="black" cx="287.09" cy="-152.37" rx="31.4" ry="31.4"/>
<text text-anchor="middle" x="287.09" y="-149.87" font-family="Times,serif" font-size="10.00">Tienda 2</text>
</g>
<!-- Tienda 2&#45;&gt;Almacen A -->
<g id="edge5" class="edge">
<title>Tienda 2&#45;&gt;Almacen A</title>
<path fill="none" stroke="black" d="M262.96,-132.31C256.75,-128.13 249.9,-124.08 243.09,-121.17 207.18,-105.82 193.84,-116.36 157.09,-103.17 147.17,-99.61 145.77,-96.32 136.09,-92.17 113.22,-82.37 104.96,-86.02 83.09,-74.17 79.77,-72.37 76.44,-70.34 73.18,-68.17"/>
<polygon fill="black" stroke="black" points="74.94,-65.12 64.75,-62.19 70.89,-70.83 74.94,-65.12"/>
<text text-anchor="middle" x="162.59" y="-95.17" font-family="Times,serif" font-size="10.00">6$</text>
</g>
<!-- Tienda 2&#45;&gt;Almacen B -->
<g id="edge6" class="edge">
<title>Tienda 2&#45;&gt;Almacen B</title>
<path fill="none" stroke="black" d="M317.68,-144.24C338.97,-137.51 365.83,-125.08 379.09,-103.17 386.67,-90.64 380.12,-77.35 369.83,-66.07"/>
<polygon fill="black" stroke="black" points="372.21,-63.5 362.64,-58.97 367.3,-68.49 372.21,-63.5"/>
<text text-anchor="middle" x="387.59" y="-95.17" font-family="Times,serif" font-size="10.00">3$</text>
</g>
<!-- Tienda 2&#45;&gt;Almacen C -->
<g id="edge7" class="edge">
<title>Tienda 2&#45;&gt;Almacen C</title>
<path fill="none" stroke="black" d="M315.24,-138.28C335.74,-126.91 357.84,-109.58 345.09,-92.17 329.38,-70.74 312.38,-84.92 288.09,-74.17 280.64,-70.88 272.95,-66.91 265.63,-62.83"/>
<polygon fill="black" stroke="black" points="267.02,-59.59 256.6,-57.65 263.53,-65.66 267.02,-59.59"/>
<text text-anchor="middle" x="353.59" y="-95.17" font-family="Times,serif" font-size="10.00">5$</text>
</g>
<!-- Tienda 2&#45;&gt;Almacen D -->
<g id="edge8" class="edge">
<title>Tienda 2&#45;&gt;Almacen D</title>
<path fill="none" stroke="black" d="M269.56,-126.43C260.2,-114.65 247.78,-101.22 234.09,-92.17 213.33,-78.46 203.3,-85.37 181.09,-74.17 176.24,-71.73 171.33,-68.89 166.56,-65.89"/>
<polygon fill="black" stroke="black" points="168.45,-62.94 158.17,-60.38 164.61,-68.79 168.45,-62.94"/>
<text text-anchor="middle" x="252.59" y="-95.17" font-family="Times,serif" font-size="10.00">8$</text>
</g>
<!-- Tienda 3 -->
<g id="node3" class="node">
<title>Tienda 3</title>
<ellipse fill="#add8e6" stroke="black" cx="203.09" cy="-152.37" rx="31.4" ry="31.4"/>
<text text-anchor="middle" x="203.09" y="-149.87" font-family="Times,serif" font-size="10.00">Tienda 3</text>
</g>
<!-- Tienda 3&#45;&gt;Almacen A -->
<g id="edge9" class="edge">
<title>Tienda 3&#45;&gt;Almacen A</title>
<path fill="none" stroke="black" d="M178.13,-133.04C171.25,-128.63 163.61,-124.31 156.09,-121.17 122.05,-106.98 104.87,-124.91 75.09,-103.17 67.08,-97.33 60.49,-89.25 55.18,-80.77"/>
<polygon fill="black" stroke="black" points="58.09,-78.82 50.09,-71.87 52.01,-82.29 58.09,-78.82"/>
<text text-anchor="middle" x="80.59" y="-95.17" font-family="Times,serif" font-size="10.00">9$</text>
</g>
<!-- Tienda 3&#45;&gt;Almacen B -->
<g id="edge10" class="edge">
<title>Tienda 3&#45;&gt;Almacen B</title>
<path fill="none" stroke="black" d="M227.36,-132.63C233.56,-128.44 240.37,-124.31 247.09,-121.17 273.85,-108.64 289.66,-123.52 311.09,-103.17 316.92,-97.63 321.21,-90.48 324.36,-82.97"/>
<polygon fill="black" stroke="black" points="327.73,-83.93 327.78,-73.34 321.14,-81.59 327.73,-83.93"/>
<text text-anchor="middle" x="324.59" y="-95.17" font-family="Times,serif" font-size="10.00">5$</text>
</g>
<!-- Tienda 3&#45;&gt;Almacen C -->
<g id="edge11" class="edge">
<title>Tienda 3&#45;&gt;Almacen C</title>
<path fill="none" stroke="black" d="M209.13,-121.61C211.5,-109.92 214.28,-96.24 216.89,-83.37"/>
<polygon fill="black" stroke="black" points="220.38,-83.78 218.94,-73.28 213.52,-82.39 220.38,-83.78"/>
<text text-anchor="middle" x="222.09" y="-95.17" font-family="Times,serif" font-size="10.00">11$</text>
</g>
<!-- Tienda 3&#45;&gt;Almacen D -->
<g id="edge12" class="edge">
<title>Tienda 3&#45;&gt;Almacen D</title>
<path fill="none" stroke="black" d="M177.36,-134.55C170.49,-130.13 163.04,-125.42 156.09,-121.17 142.49,-112.86 133.03,-116.98 125.09,-103.17 121.63,-97.17 120.06,-90.33 119.66,-83.38"/>
<polygon fill="black" stroke="black" points="123.16,-83.28 119.84,-73.22 116.16,-83.16 123.16,-83.28"/>
<text text-anchor="middle" x="130.59" y="-95.17" font-family="Times,serif" font-size="10.00">7$</text>
</g>
</g>
</svg>