<?xml version="1.0" encoding="UTF-8" standalone="no"?>
<!DOCTYPE svg PUBLIC "-//W3C//DTD SVG 1.1//EN"
 "http://www.w3.org/Graphics/SVG/1.1/DTD/svg11.dtd">
<!-- Generated by graphviz version 2.43.0 (0)
 -->
<!-- Title: %3 Pages: 1 -->
<svg width="307pt" height="192pt"
 viewBox="0.00 0.00 306.70 191.57" xmlns="http://www.w3.org/2000/svg" xmlns:xlink="http://www.w3.org/1999/xlink">
<g id="graph0" class="graph" transform="scale(1 1) rotate(0) translate(4 187.57)">
<title>%3</title>
<polygon fill="white" stroke="transparent" points="-4,4 -4,-187.57 302.7,-187.57 302.7,4 -4,4"/>
<!-- Tienda 1 -->
<g id="node1" class="node">
<title>Tienda 1</title>
<ellipse fill="#add8e6" stroke="black" cx="61.5" cy="-152.37" rx="31.4" ry="31.4"/>
<text text-anchor="middle" x="61.5" y="-149.87" font-family="Times,serif" font-size="10.00">Tienda 1</text>
</g>
<!-- Almacen A -->
<g id="node4" class="node">
<title>Almacen A</title>
<ellipse fill="#add8e6" stroke="black" cx="128.5" cy="-37.09" rx="37.17" ry="37.17"/>
<text text-anchor="middle" x="128.5" y="-34.59" font-family="Times,serif" font-size="10.00">Almacen A</text>
</g>
<!-- Tienda 1&#45;&gt;Almacen A -->
<g id="edge1" class="edge">
<title>Tienda 1&#45;&gt;Almacen A</title>
<path fill="none" stroke="black" d="M77.04,-125.1C85.24,-111.22 95.5,-93.89 104.68,-78.35"/>
<polygon fill="black" stroke="black" points="107.87,-79.84 109.95,-69.45 101.84,-76.28 107.87,-79.84"/>
<text text-anchor="middle" x="103.5" y="-95.17" font-family="Times,serif" font-size="10.00">10$</text>
</g>
<!-- Almacen B -->
<g id="node5" class="node">
<title>Almacen B</title>
<ellipse fill="#add8e6" stroke="black" cx="36.5" cy="-37.09" rx="36.49" ry="36.49"/>
<text text-anchor="middle" x="36.5" y="-34.59" font-family="Times,serif" font-size="10.00">Almacen B</text>
</g>
<!-- Tienda 1&#45;&gt;Almacen B -->
<g id="edge2" class="edge">
<title>Tienda 1&#45;&gt;Almacen B</title>
<path fill="none" stroke="black" d="M36.84,-132.38C28.4,-124.39 19.97,-114.34 15.5,-103.17 12.29,-95.17 12.59,-86.47 14.67,-78.12"/>
<polygon fill="black" stroke="black" points="18.02,-79.12 17.82,-68.53 11.37,-76.94 18.02,-79.12"/>
<text text-anchor="middle" x="21" y="-95.17" font-family="Times,serif" font-size="10.00">8$</text>
</g>
<!-- Almacen C -->
<g id="node6" class="node">
<title>Almacen C</title>
<ellipse fill="#add8e6" stroke="black" cx="228.5" cy="-37.09" rx="36.49" ry="36.49"/>
<text text-anchor="middle" x="228.5" y="-34.59" font-family="Times,serif" font-size="10.00">Almacen C</text>
</g>
<!-- Tienda 1&#45;&gt;Almacen C -->
<g id="edge3" class="edge">
<title>Tienda 1&#45;&gt;Almacen C</title>
<path fill="none" stroke="black" d="M85.03,-131.2C90.21,-127.46 95.85,-123.88 101.5,-121.17 130.85,-107.09 144.82,-120.31 172.5,-103.17 183.8,-96.18 194.02,-86.16 202.54,-76.07"/>
<polygon fill="black" stroke="black" points="205.47,-78.01 209,-68.02 200.02,-73.63 205.47,-78.01"/>
<text text-anchor="middle" x="192" y="-95.17" font-family="Times,serif" font-size="10.00">7$</text>
</g>
<!-- Tienda 2 -->
<g id="node2" class="node">
<title>Tienda 2</title>
<ellipse fill="#add8e6" stroke="black" cx="267.5" cy="-152.37" rx="31.4" ry="31.4"/>
<text text-anchor="middle" x="267.5" y="-149.87" font-family="Times,serif" font-size="10.00">Tienda 2</text>
</g>
<!-- Tienda 2&#45;&gt;Almacen A -->
<g id="edge4" class="edge">
<title>Tienda 2&#45;&gt;Almacen A</title>
<path fill="none" stroke="black" d="M255.86,-123.16C250.18,-112.25 242.41,-100.42 232.5,-92.17 214.67,-77.32 204.22,-84.6 183.5,-74.17 177.94,-71.37 172.26,-68.13 166.76,-64.77"/>
<polygon fill="black" stroke="black" points="168.62,-61.8 158.3,-59.41 164.88,-67.72 168.62,-61.8"/>
<text text-anchor="middle" x="248" y="-95.17" font-family="Times,serif" font-size="10.00">5$</text>
</g>
<!-- Tienda 2&#45;&gt;Almacen B -->
<g id="edge5" class="edge">
<title>Tienda 2&#45;&gt;Almacen B</title>
<path fill="none" stroke="black" d="M238.21,-140.29C214.69,-131.11 181,-117.32 152.5,-103.17 143.76,-98.83 142.36,-96.26 133.5,-92.17 111.67,-82.11 103.57,-85.74 82.5,-74.17 78.99,-72.25 75.48,-70.06 72.04,-67.74"/>
<polygon fill="black" stroke="black" points="73.87,-64.74 63.7,-61.76 69.79,-70.43 73.87,-64.74"/>
<text text-anchor="middle" x="160.5" y="-95.17" font-family="Times,serif" font-size="10.00">12$</text>
</g>
<!-- Tienda 2&#45;&gt;Almacen C -->
<g id="edge6" class="edge">
<title>Tienda 2&#45;&gt;Almacen C</title>
<path fill="none" stroke="black" d="M279.67,-123.37C282.36,-113.31 283.41,-102.02 279.5,-92.17 276,-83.36 270.31,-75.16 263.98,-67.93"/>
<polygon fill="black" stroke="black" points="266.35,-65.34 256.92,-60.5 261.27,-70.16 266.35,-65.34"/>
<text text-anchor="middle" x="287" y="-95.17" font-family="Times,serif" font-size="10.00">6$</text>
</g>
<!-- Tienda 3 -->
<g id="node3" class="node">
<title>Tienda 3</title>
<ellipse fill="#add8e6" stroke="black" cx="141.5" cy="-152.37" rx="31.4" ry="31.4"/>
<text text-anchor="middle" x="141.5" y="-149.87" font-family="Times,serif" font-size="10.00">Tienda 3</text>
</g>
<!-- Tienda 3&#45;&gt;Almacen A -->
<g id="edge7" class="edge">
<title>Tienda 3&#45;&gt;Almacen A</title>
<path fill="none" stroke="black" d="M128.61,-123.87C126.08,-117.23 123.81,-110.06 122.5,-103.17 121.32,-96.95 120.93,-90.35 121.06,-83.84"/>
<polygon fill="black" stroke="black" points="124.56,-83.91 121.63,-73.73 117.57,-83.51 124.56,-83.91"/>
<text text-anchor="middle" x="128" y="-95.17" font-family="Times,serif" font-size="10.00">4$</text>
</g>
<!-- Tienda 3&#45;&gt;Almacen B -->
<g id="edge8" class="edge">
<title>Tienda 3&#45;&gt;Almacen B</title>
<path fill="none" stroke="black" d="M117.02,-132.76C111.91,-128.9 106.54,-124.89 101.5,-121.17 90.48,-113.05 85.82,-113.2 76.5,-103.17 69.73,-95.89 63.49,-87.29 58.06,-78.77"/>
<polygon fill="black" stroke="black" points="60.9,-76.7 52.7,-69.98 54.92,-80.34 60.9,-76.7"/>
<text text-anchor="middle" x="82" y="-95.17" font-family="Times,serif" font-size="10.00">7$</text>
</g>
<!-- Tienda 3&#45;&gt;Almacen C -->
<g id="edge9" class="edge">
<title>Tienda 3&#45;&gt;Almacen C</title>
<path fill="none" stroke="black" d="M168.64,-136.55C181.67,-128.24 196.57,-116.8 206.5,-103.17 210.94,-97.07 214.53,-90.01 217.41,-82.84"/>
<polygon fill="black" stroke="black" points="220.84,-83.67 220.93,-73.07 214.25,-81.3 220.84,-83.67"/>
<text text-anchor="middle" x="220.5" y="-95.17" font-family="Times,serif" font-size="10.00">11$</text>
</g>
</g>
</svg>