<?xml version="1.0" encoding="UTF-8" standalone="no"?>
<!DOCTYPE svg PUBLIC "-//W3C//DTD SVG 1.1//EN"
 "http://www.w3.org/Graphics/SVG/1.1/DTD/svg11.dtd">
<!-- Generated by graphviz version 2.43.0 (0)
 -->
<!-- Title: %3 Pages: 1 -->
<svg width="448pt" height="192pt"
 viewBox="0.00 0.00 447.99 191.57" xmlns="http://www.w3.org/2000/svg" xmlns:xlink="http://www.w3.org/1999/xlink">
<g id="graph0" class="graph" transform="scale(1 1) rotate(0) translate(4 187.57)">
<title>%3</title>
<polygon fill="white" stroke="transparent" points="-4,4 -4,-187.57 443.99,-187.57 443.99,4 -4,4"/>
<!-- Tienda 1 -->
<g id="node1" class="node">
<title>Tienda 1</title>
<ellipse fill="#d8bfd8" stroke="black" cx="155.5" cy="-152.37" rx="31.4" ry="31.4"/>
<text text-anchor="middle" x="155.5" y="-149.87" font-family="Times,serif" font-size="10.00">Tienda 1</text>
</g>
<!-- Almacen A -->
<g id="node4" class="node">
<title>Almacen A</title>
<ellipse fill="#d8bfd8" stroke="black" cx="220.5" cy="-37.09" rx="37.17" ry="37.17"/>
<text text-anchor="middle" x="220.5" y="-34.59" font-family="Times,serif" font-size="10.00">Almacen A</text>
</g>
<!-- Tienda 1&#45;&gt;Almacen A -->
<g id="edge1" class="edge">
<title>Tienda 1&#45;&gt;Almacen A</title>
<path fill="none" stroke="black" d="M170.74,-124.81C178.64,-111.03 188.46,-93.91 197.29,-78.53"/>
<polygon fill="black" stroke="black" points="200.41,-80.13 202.35,-69.71 194.34,-76.65 200.41,-80.13"/>
<text text-anchor="middle" x="191.5" y="-95.17" font-family="Times,serif" font-size="10.00">6</text>
</g>
<!-- Almacen B -->
<g id="node5" class="node">
<title>Almacen B</title>
<ellipse fill="#d8bfd8" stroke="black" cx="36.5" cy="-37.09" rx="36.49" ry="36.49"/>
<text text-anchor="middle" x="36.5" y="-34.59" font-family="Times,serif" font-size="10.00">Almacen B</text>
</g>
<!-- Tienda 1&#45;&gt;Almacen B -->
<g id="edge2" class="edge">
<title>Tienda 1&#45;&gt;Almacen B</title>
<path fill="none" stroke="black" d="M124.57,-147.25C97.91,-141.94 60.76,-129.94 41.5,-103.17 37.41,-97.49 35,-90.75 33.7,-83.81"/>
<polygon fill="black" stroke="black" points="37.14,-83.11 32.53,-73.58 30.19,-83.91 37.14,-83.11"/>
<text text-anchor="middle" x="44.5" y="-95.17" font-family="Times,serif" font-size="10.00">8</text>
</g>
<!-- Almacen C -->
<g id="node6" class="node">
<title>Almacen C</title>
<ellipse fill="#d8bfd8" stroke="black" cx="312.5" cy="-37.09" rx="36.49" ry="36.49"/>
<text text-anchor="middle" x="312.5" y="-34.59" font-family="Times,serif" font-size="10.00">Almacen C</text>
</g>
<!-- Tienda 1&#45;&gt;Almacen C -->
<g id="edge3" class="edge">
<title>Tienda 1&#45;&gt;Almacen C</title>
<path fill="none" stroke="black" d="M179.17,-131.47C184.34,-127.71 189.94,-124.06 195.5,-121.17 218.7,-109.13 229.41,-117.16 251.5,-103.17 263.61,-95.51 274.93,-84.88 284.46,-74.43"/>
<polygon fill="black" stroke="black" points="287.1,-76.73 291.06,-66.9 281.84,-72.11 287.1,-76.73"/>
<text text-anchor="middle" x="271" y="-95.17" font-family="Times,serif" font-size="10.00">10</text>
</g>
<!-- Almacen D -->
<g id="node7" class="node">
<title>Almacen D</title>
<ellipse fill="#d8bfd8" stroke="black" cx="128.5" cy="-37.09" rx="37.17" ry="37.17"/>
<text text-anchor="middle" x="128.5" y="-34.59" font-family="Times,serif" font-size="10.00">Almacen D</text>
</g>
<!-- Tienda 1&#45;&gt;Almacen D -->
<g id="edge4" class="edge">
<title>Tienda 1&#45;&gt;Almacen D</title>
<path fill="none" stroke="black" d="M129.61,-134.55C119.47,-126.42 108.96,-115.69 103.5,-103.17 99.8,-94.7 100.53,-85.49 103.38,-76.74"/>
<polygon fill="black" stroke="black" points="106.62,-78.05 107.2,-67.47 100.15,-75.39 106.62,-78.05"/>
<text text-anchor="middle" x="106.5" y="-95.17" font-family="Times,serif" font-size="10.00">9</text>
</g>
<!-- Almacen E -->
<g id="node8" class="node">
<title>Almacen E</title>
<ellipse fill="#d8bfd8" stroke="black" cx="403.5" cy="-37.09" rx="36.49" ry="36.49"/>
<text text-anchor="middle" x="403.5" y="-34.59" font-family="Times,serif" font-size="10.00">Almacen E</text>
</g>
<!-- Tienda 1&#45;&gt;Almacen E -->
<g id="edge5" class="edge">
<title>Tienda 1&#45;&gt;Almacen E</title>
<path fill="none" stroke="black" d="M178.38,-131.01C183.69,-127.19 189.55,-123.63 195.5,-121.17 249.4,-98.88 272.15,-126.77 325.5,-103.17 342.49,-95.66 358.7,-83.31 371.9,-71.37"/>
<polygon fill="black" stroke="black" points="374.4,-73.83 379.31,-64.44 369.61,-68.72 374.4,-73.83"/>
<text text-anchor="middle" x="348.5" y="-95.17" font-family="Times,serif" font-size="10.00">7</text>
</g>
<!-- Tienda 2 -->
<g id="node2" class="node">
<title>Tienda 2</title>
<ellipse fill="#d8bfd8" stroke="black" cx="235.5" cy="-152.37" rx="31.4" ry="31.4"/>
<text text-anchor="middle" x="235.5" y="-149.87" font-family="Times,serif" font-size="10.00">Tienda 2</text>
</g>
<!-- Tienda 2&#45;&gt;Almacen A -->
<g id="edge6" class="edge">
<title>Tienda 2&#45;&gt;Almacen A</title>
<path fill="none" stroke="black" d="M224.39,-122.95C222.36,-116.54 220.55,-109.7 219.5,-103.17 218.54,-97.24 218.02,-90.96 217.8,-84.74"/>
<polygon fill="black" stroke="black" points="221.3,-84.36 217.69,-74.4 214.3,-84.43 221.3,-84.36"/>
<text text-anchor="middle" x="222.5" y="-95.17" font-family="Times,serif" font-size="10.00">5</text>
</g>
<!-- Tienda 2&#45;&gt;Almacen B -->
<g id="edge7" class="edge">
<title>Tienda 2&#45;&gt;Almacen B</title>
<path fill="none" stroke="black" d="M212.56,-131.14C207.25,-127.31 201.41,-123.71 195.5,-121.17 150.79,-101.96 129.34,-128.01 87.5,-103.17 76.79,-96.82 67.49,-87.3 59.86,-77.49"/>
<polygon fill="black" stroke="black" points="62.57,-75.27 53.86,-69.25 56.92,-79.39 62.57,-75.27"/>
<text text-anchor="middle" x="92.5" y="-95.17" font-family="Times,serif" font-size="10.00">11</text>
</g>
<!-- Tienda 2&#45;&gt;Almacen C -->
<g id="edge8" class="edge">
<title>Tienda 2&#45;&gt;Almacen C</title>
<path fill="none" stroke="black" d="M259.46,-131.99C268.49,-123.81 278.3,-113.73 285.5,-103.17 290,-96.56 293.97,-89.08 297.38,-81.61"/>
<polygon fill="black" stroke="black" points="300.68,-82.78 301.39,-72.21 294.25,-80.03 300.68,-82.78"/>
<text text-anchor="middle" x="294.5" y="-95.17" font-family="Times,serif" font-size="10.00">7</text>
</g>
<!-- Tienda 2&#45;&gt;Almacen D -->
<g id="edge9" class="edge">
<title>Tienda 2&#45;&gt;Almacen D</title>
<path fill="none" stroke="black" d="M211.9,-131.33C206.72,-127.58 201.1,-123.97 195.5,-121.17 169.44,-108.18 150.74,-125.87 132.5,-103.17 128.11,-97.72 125.61,-91.1 124.34,-84.2"/>
<polygon fill="black" stroke="black" points="127.8,-83.59 123.29,-74 120.84,-84.31 127.8,-83.59"/>
<text text-anchor="middle" x="135.5" y="-95.17" font-family="Times,serif" font-size="10.00">4</text>
</g>
<!-- Tienda 2&#45;&gt;Almacen E -->
<g id="edge10" class="edge">
<title>Tienda 2&#45;&gt;Almacen E</title>
<path fill="none" stroke="black" d="M262.52,-136.24C272.9,-130.9 285.02,-125.22 296.5,-121.17 331.27,-108.9 349.4,-127.06 377.5,-103.17 384.03,-97.62 388.93,-90.2 392.61,-82.35"/>
<polygon fill="black" stroke="black" points="395.87,-83.61 396.39,-73.03 389.39,-80.98 395.87,-83.61"/>
<text text-anchor="middle" x="388.5" y="-95.17" font-family="Times,serif" font-size="10.00">3</text>
</g>
<!-- Tienda 3 -->
<g id="node3" class="node">
<title>Tienda 3</title>
<ellipse fill="#d8bfd8" stroke="black" cx="336.5" cy="-152.37" rx="31.4" ry="31.4"/>
<text text-anchor="middle" x="336.5" y="-149.87" font-family="Times,serif" font-size="10.00">Tienda 3</text>
</g>
<!-- Tienda 3&#45;&gt;Almacen A -->
<g id="edge11" class="edge">
<title>Tienda 3&#45;&gt;Almacen A</title>
<path fill="none" stroke="black" d="M324.12,-123.51C318.37,-112.78 310.74,-100.99 301.5,-92.17 289.13,-80.37 281.88,-83.41 267.5,-74.17 264.14,-72.01 260.71,-69.68 257.32,-67.27"/>
<polygon fill="black" stroke="black" points="259.16,-64.28 249.03,-61.2 255.03,-69.93 259.16,-64.28"/>
<text text-anchor="middle" x="316" y="-95.17" font-family="Times,serif" font-size="10.00">12</text>
</g>
<!-- Tienda 3&#45;&gt;Almacen B -->
<g id="edge12" class="edge">
<title>Tienda 3&#45;&gt;Almacen B</title>
<path fill="none" stroke="black" d="M309.56,-135.98C299.19,-130.61 287.06,-124.98 275.5,-121.17 232.19,-106.91 218.78,-114.05 174.5,-103.17 164.09,-100.61 91.98,-79.17 82.5,-74.17 78.96,-72.31 75.43,-70.16 71.97,-67.87"/>
<polygon fill="black" stroke="black" points="73.79,-64.87 63.61,-61.93 69.74,-70.57 73.79,-64.87"/>
<text text-anchor="middle" x="177.5" y="-95.17" font-family="Times,serif" font-size="10.00">9</text>
</g>
<!-- Tienda 3&#45;&gt;Almacen C -->
<g id="edge13" class="edge">
<title>Tienda 3&#45;&gt;Almacen C</title>
<path fill="none" stroke="black" d="M365.71,-141.07C390.8,-130.55 420.82,-112.84 406.5,-92.17 393.52,-73.44 378.36,-85.33 358.5,-74.17 355.01,-72.21 351.51,-70 348.08,-67.67"/>
<polygon fill="black" stroke="black" points="349.91,-64.67 339.75,-61.67 345.82,-70.35 349.91,-64.67"/>
<text text-anchor="middle" x="412.5" y="-95.17" font-family="Times,serif" font-size="10.00">3</text>
</g>
<!-- Tienda 3&#45;&gt;Almacen D -->
<g id="edge14" class="edge">
<title>Tienda 3&#45;&gt;Almacen D</title>
<path fill="none" stroke="black" d="M309.31,-136.07C286.49,-123.52 252.85,-105.69 222.5,-92.17 201.68,-82.9 194.36,-85.33 174.5,-74.17 171.21,-72.32 167.9,-70.25 164.66,-68.06"/>
<polygon fill="black" stroke="black" points="166.42,-65.01 156.25,-62.04 162.35,-70.71 166.42,-65.01"/>
<text text-anchor="middle" x="248.5" y="-95.17" font-family="Times,serif" font-size="10.00">8</text>
</g>
<!-- Tienda 3&#45;&gt;Almacen E -->
<g id="edge15" class="edge">
<title>Tienda 3&#45;&gt;Almacen E</title>
<path fill="none" stroke="black" d="M366.24,-142.63C385.14,-135.37 408.11,-122.96 419.5,-103.17 423.67,-95.93 424.24,-87.63 422.9,-79.44"/>
<polygon fill="black" stroke="black" points="426.26,-78.43 420.44,-69.57 419.46,-80.12 426.26,-78.43"/>
<text text-anchor="middle" x="425.5" y="-95.17" font-family="Times,serif" font-size="10.00">6</text>
</g>
</g>
</svg>