<?xml version="1.0" encoding="UTF-8" standalone="no"?>
<!DOCTYPE svg PUBLIC "-//W3C//DTD SVG 1.1//EN"
 "http://www.w3.org/Graphics/SVG/1.1/DTD/svg11.dtd">
<!-- Generated by graphviz version 2.43.0 (0)
 -->
<!-- Title: %3 Pages: 1 -->
<svg width="317pt" height="177pt"
 viewBox="0.00 0.00 317.46 177.44" xmlns="http://www.w3.org/2000/svg" xmlns:xlink="http://www.w3.org/1999/xlink">
<g id="graph0" class="graph" transform="scale(1 1) rotate(0) translate(4 173.44)">
<title>%3</title>
<polygon fill="white" stroke="transparent" points="-4,4 -4,-173.44 313.46,-173.44 313.46,4 -4,4"/>
<!-- Planta 1 -->
<g id="node1" class="node">
<title>Planta 1</title>
<ellipse fill="#add8e6" stroke="black" cx="60.46" cy="-140.01" rx="29.37" ry="29.37"/>
<text text-anchor="middle" x="60.46" y="-137.51" font-family="Times,serif" font-size="10.00">Planta 1</text>
</g>
<!-- Ciudad 1 -->
<g id="node4" class="node">
<title>Ciudad 1</title>
<ellipse fill="#add8e6" stroke="black" cx="120.46" cy="-31.79" rx="31.58" ry="31.58"/>
<text text-anchor="middle" x="120.46" y="-29.29" font-family="Times,serif" font-size="10.00">Ciudad 1</text>
</g>
<!-- Planta 1&#45;&gt;Ciudad 1 -->
<g id="edge1" class="edge">
<title>Planta 1&#45;&gt;Ciudad 1</title>
<path fill="none" stroke="black" d="M74.53,-114.1C82.16,-100.6 91.72,-83.66 100.15,-68.75"/>
<polygon fill="black" stroke="black" points="103.35,-70.2 105.22,-59.77 97.25,-66.75 103.35,-70.2"/>
<text text-anchor="middle" x="100.46" y="-84.58" font-family="Times,serif" font-size="10.00">600</text>
</g>
<!-- Ciudad 2 -->
<g id="node5" class="node">
<title>Ciudad 2</title>
<ellipse fill="#add8e6" stroke="black" cx="38.46" cy="-31.79" rx="31.58" ry="31.58"/>
<text text-anchor="middle" x="38.46" y="-29.29" font-family="Times,serif" font-size="10.00">Ciudad 2</text>
</g>
<!-- Planta 1&#45;&gt;Ciudad 2 -->
<g id="edge2" class="edge">
<title>Planta 1&#45;&gt;Ciudad 2</title>
<path fill="none" stroke="black" d="M34.72,-125.63C22.55,-117.79 9.22,-106.64 2.46,-92.58 -2.66,-81.91 1.36,-70.68 8.3,-60.87"/>
<polygon fill="black" stroke="black" points="11.09,-62.98 14.68,-53.01 5.66,-58.57 11.09,-62.98"/>
<text text-anchor="middle" x="10.46" y="-84.58" font-family="Times,serif" font-size="10.00">700</text>
</g>
<!-- Ciudad 3 -->
<g id="node6" class="node">
<title>Ciudad 3</title>
<ellipse fill="#add8e6" stroke="black" cx="235.46" cy="-31.79" rx="31.58" ry="31.58"/>
<text text-anchor="middle" x="235.46" y="-29.29" font-family="Times,serif" font-size="10.00">Ciudad 3</text>
</g>
<!-- Planta 1&#45;&gt;Ciudad 3 -->
<g id="edge3" class="edge">
<title>Planta 1&#45;&gt;Ciudad 3</title>
<path fill="none" stroke="black" d="M82.61,-120.57C87.89,-116.84 93.68,-113.25 99.46,-110.58 130.58,-96.2 144.47,-109.17 174.46,-92.58 187.3,-85.47 199.33,-74.92 209.26,-64.65"/>
<polygon fill="black" stroke="black" points="211.86,-66.99 216.1,-57.28 206.73,-62.23 211.86,-66.99"/>
<text text-anchor="middle" x="198.46" y="-84.58" font-family="Times,serif" font-size="10.00">400</text>
</g>
<!-- Planta 2 -->
<g id="node2" class="node">
<title>Planta 2</title>
<ellipse fill="#add8e6" stroke="black" cx="274.46" cy="-140.01" rx="29.37" ry="29.37"/>
<text text-anchor="middle" x="274.46" y="-137.51" font-family="Times,serif" font-size="10.00">Planta 2</text>
</g>
<!-- Planta 2&#45;&gt;Ciudad 1 -->
<g id="edge4" class="edge">
<title>Planta 2&#45;&gt;Ciudad 1</title>
<path fill="none" stroke="black" d="M263.52,-112.62C257.95,-101.81 250.26,-89.91 240.46,-81.58 223.73,-67.35 214.82,-71.79 194.46,-63.58 182.87,-58.9 170.3,-53.71 158.86,-48.95"/>
<polygon fill="black" stroke="black" points="160.15,-45.69 149.57,-45.07 157.45,-52.15 160.15,-45.69"/>
<text text-anchor="middle" x="257.46" y="-84.58" font-family="Times,serif" font-size="10.00">320</text>
</g>
<!-- Planta 2&#45;&gt;Ciudad 2 -->
<g id="edge5" class="edge">
<title>Planta 2&#45;&gt;Ciudad 2</title>
<path fill="none" stroke="black" d="M246.78,-129.68C222.12,-121.05 185.28,-107.35 154.46,-92.58 145.66,-88.36 144.38,-85.54 135.46,-81.58 111.57,-70.97 102.68,-75.59 79.46,-63.58 76.7,-62.15 73.94,-60.54 71.21,-58.82"/>
<polygon fill="black" stroke="black" points="72.97,-55.79 62.73,-53.07 69.05,-61.58 72.97,-55.79"/>
<text text-anchor="middle" x="162.46" y="-84.58" font-family="Times,serif" font-size="10.00">300</text>
</g>
<!-- Planta 2&#45;&gt;Ciudad 3 -->
<g id="edge6" class="edge">
<title>Planta 2&#45;&gt;Ciudad 3</title>
<path fill="none" stroke="black" d="M289.36,-114.43C293.73,-104.05 296.2,-91.99 291.46,-81.58 286.8,-71.33 278.81,-62.4 270.3,-55.08"/>
<polygon fill="black" stroke="black" points="272.42,-52.3 262.42,-48.82 268.07,-57.78 272.42,-52.3"/>
<text text-anchor="middle" x="301.46" y="-84.58" font-family="Times,serif" font-size="10.00">350</text>
</g>
<!-- Planta 3 -->
<g id="node3" class="node">
<title>Planta 3</title>
<ellipse fill="#add8e6" stroke="black" cx="137.46" cy="-140.01" rx="29.37" ry="29.37"/>
<text text-anchor="middle" x="137.46" y="-137.51" font-family="Times,serif" font-size="10.00">Planta 3</text>
</g>
<!-- Planta 3&#45;&gt;Ciudad 1 -->
<g id="edge7" class="edge">
<title>Planta 3&#45;&gt;Ciudad 1</title>
<path fill="none" stroke="black" d="M125.44,-112.99C122.97,-106.46 120.73,-99.37 119.46,-92.58 118.35,-86.63 117.79,-80.29 117.6,-74.04"/>
<polygon fill="black" stroke="black" points="121.1,-73.7 117.58,-63.71 114.1,-73.72 121.1,-73.7"/>
<text text-anchor="middle" x="127.46" y="-84.58" font-family="Times,serif" font-size="10.00">500</text>
</g>
<!-- Planta 3&#45;&gt;Ciudad 2 -->
<g id="edge8" class="edge">
<title>Planta 3&#45;&gt;Ciudad 2</title>
<path fill="none" stroke="black" d="M114.23,-121.47C109.1,-117.77 103.65,-113.96 98.46,-110.58 85.12,-101.87 78.3,-104.25 67.46,-92.58 61.71,-86.38 56.88,-78.84 52.91,-71.23"/>
<polygon fill="black" stroke="black" points="55.97,-69.51 48.49,-62 49.65,-72.53 55.97,-69.51"/>
<text text-anchor="middle" x="75.46" y="-84.58" font-family="Times,serif" font-size="10.00">480</text>
</g>
<!-- Planta 3&#45;&gt;Ciudad 3 -->
<g id="edge9" class="edge">
<title>Planta 3&#45;&gt;Ciudad 3</title>
<path fill="none" stroke="black" d="M164.56,-127.98C180.71,-120.2 200.51,-108.35 213.46,-92.58 218.24,-86.76 222.03,-79.81 225.02,-72.74"/>
<polygon fill="black" stroke="black" points="228.39,-73.71 228.63,-63.12 221.84,-71.26 228.39,-73.71"/>
<text text-anchor="middle" x="228.46" y="-84.58" font-family="Times,serif" font-size="10.00">450</text>
</g>
</g>
</svg>